<?xml version="1.0" encoding="UTF-8"?>
<svg width="24px" height="24px" viewBox="0 0 24 24" version="1.1" xmlns="http://www.w3.org/2000/svg" xmlns:xlink="http://www.w3.org/1999/xlink">
    <!-- Generator: Sketch 61.1 (89650) - https://sketch.com -->
    <title>编组 5备份</title>
    <desc>Created with Sketch.</desc>
    <g id="页面-1" stroke="none" stroke-width="1" fill="none" fill-rule="evenodd">
        <g id="我的" transform="translate(-60.000000, -754.000000)">
            <g id="编组" transform="translate(0.000000, 723.000000)">
                <g id="编组-5备份" transform="translate(60.000000, 31.000000)">
                    <polygon id="三角形" fill="#D8D8D8" points="12 0 24 9.6 0 9.6"></polygon>
                    <path d="M21.6,9.6 L21.6,24 L2.4,24 L2.4,9.6 L21.6,9.6 Z M12.1818937,10.8865767 L11.8855018,10.9556446 L7.29403207,12.1004265 L9.78771761,22.1020529 L14.3791873,20.957271 C14.9295269,20.8200559 15.520862,20.5759995 16.1531926,20.2251017 C16.6160668,19.9695952 17.0139334,19.58899 17.3467924,19.0832863 C17.6796515,18.5775826 17.8943199,17.9998961 17.9907977,17.3502268 C18.0872756,16.7005575 18.0022684,15.8413022 17.7357763,14.7724608 C17.565675,14.0902216 17.322777,13.4647807 17.0070825,12.896138 C16.6913879,12.3274953 16.2943427,11.8588471 15.8159469,11.4901935 C15.3375511,11.1215398 14.7891539,10.883868 14.1707555,10.7771779 C13.6210679,10.6823424 12.958114,10.7188086 12.1818937,10.8865767 Z M13.5857722,13.5607574 C14.0289648,13.8657232 14.3826731,14.5480785 14.6468972,15.6078234 C14.8464827,16.4083174 14.9134649,17.0063618 14.8478438,17.4019566 C14.7822226,17.7975514 14.6308248,18.1010042 14.3936504,18.3123149 C14.156476,18.5236257 13.7149623,18.7097957 13.0691092,18.870825 L12.3118237,19.0596374 L10.949312,13.5949016 L11.7202423,13.4026871 C12.5207362,13.2031015 13.1425795,13.2557916 13.5857722,13.5607574 Z" id="形状结合" fill="#B1B1B1"></path>
                </g>
            </g>
        </g>
    </g>
</svg>