<?xml version="1.0" encoding="UTF-8"?>
<svg width="24px" height="24px" viewBox="0 0 24 24" version="1.1" xmlns="http://www.w3.org/2000/svg" xmlns:xlink="http://www.w3.org/1999/xlink">
    <!-- Generator: Sketch 61.1 (89650) - https://sketch.com -->
    <title>电话</title>
    <desc>Created with Sketch.</desc>
    <g id="页面-1" stroke="none" stroke-width="1" fill="none" fill-rule="evenodd">
        <g id="首页" transform="translate(-114.000000, -503.000000)" fill-rule="nonzero">
            <g id="电话" transform="translate(114.000000, 503.000000)">
                <rect id="矩形" fill="#FFFFFF" opacity="0.01" x="0" y="0" width="24" height="24"></rect>
                <path d="M14.896875,15.178125 L14.0320313,15.84375 C14.0320313,15.84375 13.1671875,16.265625 12.1265625,15.3 C11.0882813,14.3320313 9.24375,12.1195312 8.7234375,10.8515625 C8.203125,9.58125 9.24375,9.0375 9.24375,9.0375 C9.24375,9.0375 10.5984375,7.85859375 10.6546875,7.64765625 C10.7132813,7.43671875 11.4632813,6.58828125 9.8484375,4.321875 C8.23359375,2.053125 7.85859375,2.5078125 6.99375,3.20390625 C6.12890625,3.89765625 4.91484375,5.259375 4.65703125,6.834375 C4.396875,8.40703125 4.22578125,10.3429687 6.4171875,13.790625 C8.60859375,17.2382812 11.925,19.8703125 13.7695313,20.2921875 C15.61875,20.7140625 16.9148438,20.9859375 18.7570313,19.415625 C20.6039063,17.8429688 20.9226563,17.6929687 20.0835938,16.5726563 C19.2539063,15.45 17.4140625,14.109375 17.1375,14.053125 C16.8632813,13.9945313 16.4671875,13.8984375 15.8460938,14.38125 C15.225,14.8617188 14.896875,15.178125 14.896875,15.178125" id="路径" fill="#16D96C"></path>
            </g>
        </g>
    </g>
</svg>