<?xml version="1.0" encoding="UTF-8"?>
<svg width="13px" height="13px" viewBox="0 0 13 13" version="1.1" xmlns="http://www.w3.org/2000/svg" xmlns:xlink="http://www.w3.org/1999/xlink">
    <!-- Generator: Sketch 61.1 (89650) - https://sketch.com -->
    <title>Shape Copy 4</title>
    <desc>Created with Sketch.</desc>
    <g id="页面-1" stroke="none" stroke-width="1" fill="none" fill-rule="evenodd">
        <g id="我的" transform="translate(-190.000000, -196.000000)" fill="#000000" fill-rule="nonzero">
            <path d="M195.0368,199.878003 L193.655259,201.28305 C194.374781,202.880104 195.900326,204.658663 197.670379,205.256683 L198.864414,204.066143 C198.864414,204.066143 201.695498,204.56016 202.332017,204.86917 C202.883533,205.136679 203.066039,205.729699 202.979536,206.461224 C202.887033,207.24725 201.857003,208.980808 200.000948,208.999809 C198.144893,209.018809 195.411812,207.620762 193.453753,205.557693 C191.495695,203.494124 189.749643,200.879536 190.029652,198.658462 C190.30916,196.438388 192.243717,196.040874 192.727732,196.005373 C193.216746,195.969372 193.605258,196.112877 193.900267,196.478389 C194.280278,196.949405 195.0373,199.878003 195.0373,199.878003 L195.0368,199.878003 Z" id="Shape-Copy-4"></path>
        </g>
    </g>
</svg>